<?xml version="1.0" encoding="UTF-8"?>
<svg version="1.1" xmlns="http://www.w3.org/2000/svg" width="427" height="203">
<path d="M0 0 C140.91 0 281.82 0 427 0 C427 66.99 427 133.98 427 203 C286.09 203 145.18 203 0 203 C0 136.01 0 69.02 0 0 Z " fill="#FEFEFE" transform="translate(0,0)"/>
<path d="M0 0 C3.1525848 3.59750605 5.86291617 7.53608406 8.625 11.4375 C9.51815827 12.69406081 10.41138937 13.95056986 11.3046875 15.20703125 C11.75553711 15.84205566 12.20638672 16.47708008 12.67089844 17.13134766 C13.90415733 18.86524986 15.14211997 20.59563087 16.3828125 22.32421875 C25.25530432 34.69015075 33.97740967 47.16340366 42.625 59.6875 C46.56238529 65.38865826 50.55765769 71.04760037 54.55908203 76.70385742 C57.56290334 80.95345699 60.54449345 85.21665717 63.5 89.5 C68.02024466 96.05024545 72.61261748 102.54852316 77.20703125 109.046875 C80.48726055 113.68682465 83.74678767 118.34107863 87 123 C88.2079727 124.72941862 89.41631051 126.45858227 90.625 128.1875 C91.19605469 129.01121094 91.76710937 129.83492187 92.35546875 130.68359375 C93.38753442 132.13731095 94.4489479 133.57107982 95.55078125 134.97265625 C97.78471886 137.83587206 98.96150623 139.6599717 99.375 143.3125 C99 146 99 146 98 148 C97.34 148 96.68 148 96 148 C95.62875 149.175625 95.62875 149.175625 95.25 150.375 C93.76879264 153.48553545 93.16150681 153.8310395 90 155 C86.94140625 155.3359375 86.94140625 155.3359375 83.5625 155.375 C82.45003906 155.40335938 81.33757812 155.43171875 80.19140625 155.4609375 C76.28250322 154.89637133 74.72945887 153.82092222 72 151 C70.88671875 148.54296875 70.88671875 148.54296875 70 146 C68.98486608 144.4063201 67.91889268 142.84423357 66.8125 141.3125 C66.19890625 140.45269531 65.5853125 139.59289062 64.953125 138.70703125 C64.30859375 137.81371094 63.6640625 136.92039063 63 136 C61.68295926 134.16992595 60.37026273 132.33671555 59.0625 130.5 C58.47597656 129.6853125 57.88945312 128.870625 57.28515625 128.03125 C56 126 56 126 56 124 C55.360625 123.773125 54.72125 123.54625 54.0625 123.3125 C52 122 52 122 51.25 119.375 C51.1675 118.59125 51.085 117.8075 51 117 C50.01 116.67 49.02 116.34 48 116 C48 115.34 48 114.68 48 114 C7.74 114.33 -32.52 114.66 -74 115 C-74.66 116.65 -75.32 118.3 -76 120 C-77.21875 121.84375 -77.21875 121.84375 -78.5 123.5 C-80.51687648 126.21891608 -81.92079889 128.76239667 -83 132 C-83.66 132 -84.32 132 -85 132 C-85.66 133.98 -86.32 135.96 -87 138 C-87.66 138 -88.32 138 -89 138 C-89.2578125 138.71800781 -89.515625 139.43601563 -89.78125 140.17578125 C-91.06710787 143.15550958 -92.61617817 145.54935121 -94.5 148.1875 C-95.1084375 149.04730469 -95.716875 149.90710938 -96.34375 150.79296875 C-98 153 -98 153 -100 155 C-106.09558301 155.53470026 -111.4918172 154.78767788 -117 152 C-119.52912085 149.24095907 -119.9231817 147.48971668 -120.5 143.8125 C-119.38477137 135.30888169 -114.27173485 128.81507352 -109.23828125 122.11328125 C-106.65716396 118.5231408 -104.32033962 114.82422909 -102 111.0625 C-98.875907 106.01279366 -95.74226626 100.97499914 -92.5 96 C-91.8709375 95.030625 -91.241875 94.06125 -90.59375 93.0625 C-90.0678125 92.381875 -89.541875 91.70125 -89 91 C-88.34 91 -87.68 91 -87 91 C-86.71125 90.030625 -86.4225 89.06125 -86.125 88.0625 C-85 85 -85 85 -83 84 C-82.57460937 82.93265625 -82.57460937 82.93265625 -82.140625 81.84375 C-80.76439406 78.41259889 -78.8279846 75.53137399 -76.75 72.5 C-75.85262988 71.17203357 -74.95550931 69.84389848 -74.05859375 68.515625 C-73.57116699 67.79697266 -73.08374023 67.07832031 -72.58154297 66.33789062 C-69.63909957 61.98827068 -66.72651388 57.61869581 -63.8125 53.25 C-63.20535156 52.34040527 -62.59820312 51.43081055 -61.97265625 50.49365234 C-58.48350046 45.25704928 -55.05195745 39.99175049 -51.703125 34.6640625 C-49.09990196 30.59204847 -46.39816236 26.58667543 -43.70800781 22.57177734 C-40.52716254 17.81517898 -37.42628765 13.01286021 -34.375 8.171875 C-33.27386245 6.43257818 -32.14188203 4.71282304 -31 3 C-30.34 3 -29.68 3 -29 3 C-28.67 2.01 -28.34 1.02 -28 0 C-20.77992142 -4.81338572 -7.4530005 -4.76796757 0 0 Z " fill="#9582C9" transform="translate(135,31)"/>
<path d="M0 0 C1.04781143 -0.01283524 2.09562286 -0.02567047 3.17518616 -0.03889465 C4.29614182 -0.04628159 5.41709747 -0.05366852 6.57202148 -0.0612793 C7.73185043 -0.06935104 8.89167938 -0.07742279 10.08665466 -0.08573914 C12.53513099 -0.09954883 14.98362631 -0.11028486 17.43212891 -0.11816406 C21.18290127 -0.13545097 24.93280868 -0.17937459 28.68334961 -0.22338867 C31.06290043 -0.23350973 33.44245872 -0.24202766 35.82202148 -0.2487793 C36.94500137 -0.26628738 38.06798126 -0.28379547 39.22499084 -0.30183411 C40.79197975 -0.29744576 40.79197975 -0.29744576 42.390625 -0.29296875 C43.76698875 -0.30176811 43.76698875 -0.30176811 45.17115784 -0.31074524 C48.41841233 0.3332339 49.61062841 1.60435002 51.63061523 4.17700195 C52.05639648 7.27075195 52.05639648 7.27075195 51.94311523 10.67700195 C51.90637695 12.3630957 51.90637695 12.3630957 51.86889648 14.08325195 C51.49355173 18.95658056 51.49355173 18.95658056 50.63061523 21.17700195 C47.47256728 23.28236725 46.68629017 23.43159139 43.07421875 23.46411133 C42.15218155 23.47752563 41.23014435 23.49093994 40.28016663 23.50476074 C39.28335373 23.51003784 38.28654083 23.51531494 37.25952148 23.52075195 C35.71046364 23.54268616 35.71046364 23.54268616 34.13011169 23.56506348 C30.81781932 23.61161551 27.50558502 23.64573636 24.19311523 23.67700195 C19.86087374 23.71848935 15.52902965 23.7724192 11.19702148 23.83325195 C10.21842667 23.83852905 9.23983185 23.84380615 8.23158264 23.84924316 C-2.77196542 24.00455034 -12.7813026 24.67007977 -21.36938477 32.17700195 C-22.86921562 35.17666366 -22.60840532 38.29647156 -22.68579102 41.59106445 C-22.70657211 42.32070404 -22.72735321 43.05034363 -22.74876404 43.80209351 C-22.81420393 46.13529959 -22.87311844 48.46861917 -22.93188477 50.80200195 C-22.97507529 52.38274291 -23.01868976 53.96347234 -23.06274414 55.54418945 C-23.16987957 59.42167699 -23.27116259 63.29927881 -23.36938477 67.17700195 C-22.26032666 67.17285388 -22.26032666 67.17285388 -21.12886333 67.16862202 C-3.15227128 67.10241748 14.8242965 67.05274836 32.80098438 67.02156544 C41.49432053 67.00608544 50.18757539 66.98497437 58.88085938 66.95068359 C66.45644152 66.92081581 74.03196481 66.90143519 81.60760421 66.89473647 C85.6202143 66.89081974 89.63265597 66.88159158 93.64521217 66.85981178 C97.42003246 66.83948791 101.19461453 66.83315976 104.96948433 66.83767891 C106.3566492 66.83685186 107.74382184 66.83086167 109.13093948 66.81938553 C111.02158634 66.80450746 112.91236029 66.80982497 114.80305481 66.8162384 C115.86219495 66.81347302 116.92133509 66.81070765 118.01257038 66.80785847 C120.63061523 67.17700195 120.63061523 67.17700195 122.43233776 68.51204967 C125.82579384 73.2271032 125.18953772 79.6548478 124.63061523 85.17700195 C122.8225812 88.25065982 121.77022059 89.60719927 118.63061523 91.17700195 C116.74273296 91.27069467 114.85147823 91.29891164 112.96127319 91.29725647 C111.75529984 91.29863113 110.54932648 91.3000058 109.30680847 91.30142212 C107.96340918 91.29788276 106.62001013 91.29424795 105.27661133 91.29052734 C103.86746726 91.29024539 102.45832305 91.29040337 101.04917908 91.29096985 C97.21676231 91.2912575 93.38437666 91.28536594 89.55196714 91.27839589 C85.54942703 91.27215703 81.54688626 91.27155813 77.54434204 91.27037048 C69.96184315 91.26725874 62.37935862 91.25904746 54.79686606 91.24902099 C46.16578878 91.23785499 37.53471082 91.23234818 28.90362811 91.22732556 C11.145949 91.21686473 -6.61171673 91.19926831 -24.36938477 91.17700195 C-24.25907391 95.38585443 -24.12854484 99.59384749 -23.99438477 103.80200195 C-23.96344727 104.99180664 -23.93250977 106.18161133 -23.90063477 107.4074707 C-23.86196289 108.56118164 -23.82329102 109.71489258 -23.78344727 110.90356445 C-23.75202637 111.96140137 -23.72060547 113.01923828 -23.68823242 114.10913086 C-23.27764459 118.05970256 -22.46590584 121.67685349 -20.09594727 124.91918945 C-17.78264155 126.60444837 -15.45349291 127.39420054 -12.74438477 128.30200195 C-7.4527181 130.09366862 -7.4527181 130.09366862 -6.36938477 131.17700195 C0.19597034 132.26765072 6.66418296 132.32213534 13.30737305 132.31884766 C14.45303741 132.32232208 15.59870178 132.32579651 16.77908325 132.32937622 C19.25515513 132.336702 21.73123344 132.34206422 24.20731354 132.34566689 C28.12408228 132.35285726 32.04072756 132.36853992 35.9574585 132.38700867 C37.30200572 132.39334417 38.64655299 132.39966982 39.99110031 132.40598583 C40.6639335 132.40915164 41.33676669 132.41231745 42.02998877 132.4155792 C51.13773466 132.45757404 60.24543499 132.49067139 69.35327148 132.50292969 C76.1707108 132.51219905 82.98782319 132.54224659 89.80513763 132.5842495 C92.40310015 132.59658422 95.00110736 132.60167628 97.59909821 132.59945107 C101.22355816 132.59710876 104.84709942 132.61918068 108.47143555 132.64697266 C109.54787323 132.64037125 110.62431091 132.63376984 111.73336792 132.62696838 C118.96667623 132.71835638 118.96667623 132.71835638 122.29705811 135.01896667 C124.13118432 137.9870503 124.12827894 140.1450615 124.06811523 143.61450195 C124.06618164 145.28319336 124.06618164 145.28319336 124.06420898 146.9855957 C123.59242788 150.45807461 122.70656896 152.38030145 120.63061523 155.17700195 C118.18102988 156.40179463 116.58776827 156.30818948 113.84840393 156.31744385 C112.83817169 156.32315399 111.82793945 156.32886414 110.78709412 156.33474731 C109.11744347 156.3364241 109.11744347 156.3364241 107.4140625 156.33813477 C105.65987 156.34558212 105.65987 156.34558212 103.87023926 156.35317993 C100.65223655 156.36531038 97.43427023 156.37275531 94.21624875 156.37719059 C92.19826495 156.38012514 90.18028679 156.38423121 88.16230583 156.38869476 C81.82819125 156.40238954 75.49408964 156.41204013 69.15996128 156.41589665 C61.88943355 156.42034869 54.61909652 156.43775362 47.34862667 156.46689725 C41.7084172 156.48870496 36.06826052 156.49861137 30.42800945 156.49993777 C27.07104475 156.50097455 23.71439919 156.50813558 20.3574543 156.52475739 C5.48010152 156.59308546 -8.76534888 156.16833759 -23.36938477 153.17700195 C-23.36938477 152.51700195 -23.36938477 151.85700195 -23.36938477 151.17700195 C-24.51213867 150.99137695 -24.51213867 150.99137695 -25.67797852 150.80200195 C-36.67571927 148.60519981 -42.57713558 142.99520172 -49.17797852 134.23168945 C-52.43256526 128.61886116 -52.66258852 123.32637279 -52.64404297 117.02563477 C-52.6491539 116.1239859 -52.65426483 115.22233704 -52.65953064 114.29336548 C-52.67339311 111.3222178 -52.67247194 108.35130307 -52.67016602 105.38012695 C-52.67405564 103.30515457 -52.67839087 101.23018297 -52.68315125 99.1552124 C-52.69060692 94.80763162 -52.69032752 90.46013205 -52.68505859 86.11254883 C-52.67927419 80.56012824 -52.69617339 75.00804234 -52.71940327 69.45567703 C-52.73418816 65.16951577 -52.73500568 60.88343414 -52.73189354 56.59725189 C-52.73240467 54.55127044 -52.737603 52.50528428 -52.74770546 50.4593277 C-52.76014069 47.58798475 -52.75323522 44.71728116 -52.74169922 41.84594727 C-52.74934296 41.01235687 -52.75698669 40.17876648 -52.76486206 39.31991577 C-52.67937436 29.61850434 -50.11422959 21.2880827 -43.36938477 14.17700195 C-38.2027004 9.27192186 -33.41143769 7.12246276 -26.36938477 6.17700195 C-26.36938477 5.51700195 -26.36938477 4.85700195 -26.36938477 4.17700195 C-25.27239258 3.97204102 -24.17540039 3.76708008 -23.04516602 3.5559082 C-21.5907359 3.28378902 -20.13630898 3.0116527 -18.68188477 2.73950195 C-17.9606543 2.60479492 -17.23942383 2.47008789 -16.49633789 2.33129883 C-15.79057617 2.19916992 -15.08481445 2.06704102 -14.35766602 1.9309082 C-13.39147339 1.75023804 -13.39147339 1.75023804 -12.40576172 1.56591797 C-10.95822821 1.2894618 -9.51577021 0.98582703 -8.07769775 0.66375732 C-5.33089749 0.17008477 -2.78880888 0.0298938 0 0 Z " fill="#9582C9" transform="translate(289.369384765625,28.822998046875)"/>
<path d="M0 0 C3.74871718 1.4560468 4.98246014 3.19645897 6.875 6.6875 C8.76503164 10.02623609 10.63510437 12.88127054 13.25 15.6875 C16.20756514 18.93927319 17.1262 21.71838001 18 26 C18.66 26 19.32 26 20 26 C20.495 27.98 20.495 27.98 21 30 C21.66 30 22.32 30 23 30 C24.30078823 31.74036494 25.51488895 33.54581891 26.6875 35.375 C29.23513644 39.29514689 31.79721365 43.18503259 34.5 47 C37.17900917 50.8112463 39.82479296 54.6429281 42.4375 58.5 C43.45650391 60.00046875 43.45650391 60.00046875 44.49609375 61.53125 C46 64 46 64 46 66 C17.29 66 -11.42 66 -41 66 C-36.53846154 54.84615385 -36.53846154 54.84615385 -33.375 50.875 C-30.00757715 46.44549574 -26.98060653 41.91744748 -24.0625 37.1875 C-23.6401709 36.50421631 -23.2178418 35.82093262 -22.78271484 35.11694336 C-21.93307619 33.74159282 -21.08378985 32.36602456 -20.23486328 30.99023438 C-13.72939138 20.50533779 -6.87344766 10.24559839 0 0 Z " fill="#FCFBFD" transform="translate(120,55)"/>
<path d="M0 0 C0 0.99 0 1.98 0 3 C42.57 3.495 42.57 3.495 86 4 C85.505 2.515 85.505 2.515 85 1 C85.66 1 86.32 1 87 1 C87.5625 2.9375 87.5625 2.9375 88 5 C86.17761338 6.82238662 83.65243917 6.11997696 81.2275238 6.12442017 C80.39890335 6.12082489 79.5702829 6.11722961 78.71655273 6.11352539 C77.41423203 6.11374443 77.41423203 6.11374443 76.08560181 6.1139679 C73.20157414 6.11326846 70.3176102 6.10547463 67.43359375 6.09765625 C65.43962133 6.09579218 63.44564845 6.09436823 61.45167542 6.09336853 C56.19254298 6.08954248 50.93343797 6.07971145 45.67431641 6.06866455 C40.31217825 6.0584523 34.95003569 6.05387131 29.58789062 6.04882812 C19.05858167 6.03808926 8.52929311 6.0210118 -2 6 C-1.125 1.125 -1.125 1.125 0 0 Z " fill="#B2A4D7" transform="translate(80,117)"/>
<path d="M0 0 C1.32 0.33 2.64 0.66 4 1 C-1.445 5.455 -1.445 5.455 -7 10 C-7 7 -7 7 -6 5 C-5.34 5 -4.68 5 -4 5 C-3.67 4.01 -3.34 3.02 -3 2 C-2.01 1.34 -1.02 0.68 0 0 Z " fill="#AD9ED5" transform="translate(110,29)"/>
</svg>
